<?xml version="1.0" ?><svg data-name="Layer 1" id="Layer_1" viewBox="0 0 500 500" xmlns="http://www.w3.org/2000/svg"><defs><style>.cls-1{fill:#f8e6c5;}.cls-2{opacity:0.2;}.cls-3{fill:#fff;}.cls-3,.cls-4,.cls-5{stroke:#000;stroke-linecap:round;stroke-linejoin:round;stroke-width:20px;}.cls-4,.cls-5{fill:none;}.cls-5{stroke-dasharray:20.82 34.69;}</style></defs><title/><polygon class="cls-1" points="369.64 48.91 489.27 80.71 489.27 451.09 369.64 419.29 369.64 48.91"/><polygon class="cls-1" points="130.36 48.91 250 80.71 250 451.09 130.36 419.29 130.36 48.91"/><polygon class="cls-2" points="369.64 48.91 489.27 80.71 489.27 451.09 369.64 419.29 369.64 48.91"/><polygon class="cls-2" points="130.36 48.91 250 80.71 250 451.09 130.36 419.29 130.36 48.91"/><polygon class="cls-1" points="369.64 48.91 250 80.71 250 451.09 369.64 419.29 369.64 48.91"/><polygon class="cls-1" points="130.36 48.91 10.73 80.71 10.73 451.09 130.36 419.29 130.36 48.91"/><line class="cls-3" x1="82.67" x2="48.1" y1="138.55" y2="173.12"/><line class="cls-3" x1="82.67" x2="48.1" y1="173.12" y2="138.55"/><line class="cls-4" x1="63.75" x2="74.07" y1="157.55" y2="157.55"/><path class="cls-5" d="M108.76,157.55H285.45a45,45,0,0,1,45,45h0a45,45,0,0,1-45,45H219.12a41.86,41.86,0,0,0-41.85,41.86h0a41.85,41.85,0,0,0,41.85,41.85H407.59"/><line class="cls-4" x1="424.94" x2="435.26" y1="331.27" y2="331.27"/><line class="cls-3" x1="445.66" x2="411.1" y1="313.98" y2="348.55"/><line class="cls-3" x1="445.66" x2="411.1" y1="348.55" y2="313.98"/><polygon class="cls-4" points="369.64 48.91 489.27 80.71 489.27 451.09 369.64 419.29 369.64 48.91"/><polygon class="cls-4" points="369.64 48.91 250 80.71 250 451.09 369.64 419.29 369.64 48.91"/><polygon class="cls-4" points="130.36 48.91 10.73 80.71 10.73 451.09 130.36 419.29 130.36 48.91"/><polygon class="cls-4" points="130.36 48.91 250 80.71 250 451.09 130.36 419.29 130.36 48.91"/></svg>